<?xml version="1.0" encoding="UTF-8" standalone="no"?>
<svg
   xmlns:svg="http://www.w3.org/2000/svg"
   xmlns="http://www.w3.org/2000/svg"
   width="151.34538mm"
   height="193.10898mm"
   viewBox="0 0 151.34539 193.10898"
   version="1.1"
   id="svg8">
  <g
     id="layer1"
     transform="translate(-30.229855,-52.047099)">
    <g
       id="g2406"
       transform="translate(-30.166625,-46.63558)">
      <path
         style="fill:#A65B60;stroke-width:0.264583"
         d="m 105.04612,287.09162 -10.781775,-4.68343 9.53e-4,-61.914 9.52e-4,-61.91399 13.82353,-7.96132 13.82352,-7.96132 0.0715,-5.6224 c 0.0439,-3.45687 -0.025,-5.58775 -0.17905,-5.53243 -0.1378,0.0495 -9.01035,5.14551 -19.71679,11.3245 l -19.466262,11.23452 v 59.2391 c 0,47.28629 -0.06673,59.21208 -0.330729,59.10521 -0.624966,-0.253 -20.439285,-8.86325 -21.166667,-9.19791 l -0.727604,-0.33477 0.01221,-61.93617 0.01222,-61.93618 34.019989,-19.57916 C 113.15309,108.65333 128.87523,99.604577 129.38018,99.313535 l 0.91809,-0.529166 6.98616,2.377821 6.98617,2.37782 v 31.68728 c 0,17.42801 -0.0893,31.6908 -0.19844,31.69509 -0.10914,0.004 -2.59664,-0.66989 -5.52778,-1.49818 l -5.32934,-1.506 -7.50295,4.31619 c -4.12662,2.3739 -7.94944,4.59739 -8.49514,4.94108 l -0.99219,0.62491 v 58.99876 c 0,32.44932 -0.0893,58.99363 -0.19844,58.98734 -0.10914,-0.006 -5.05023,-2.11897 -10.9802,-4.69486 z m 30.29479,-23.81825 -6.94531,-2.26256 V 229.2907 c 0,-30.08526 0.0239,-31.71308 0.46302,-31.5836 5.45198,1.60752 10.02062,2.82058 10.38552,2.75757 0.25573,-0.0442 4.17021,-2.22025 8.69884,-4.83573 l 8.23387,-4.75543 v -40.31819 c 0,-37.77738 0.0282,-40.30736 0.44807,-40.14625 0.24645,0.0946 5.18728,2.22067 10.97964,4.72466 l 10.53155,4.55272 -0.0656,43.1189 -0.0656,43.1189 -1.8784,1.06652 c -1.03311,0.58658 -7.25315,4.16214 -13.8223,7.94568 l -11.94391,6.87917 -0.002,5.74236 -0.002,5.74236 6.29354,-3.6257 c 3.46132,-1.99413 12.38648,-7.13803 19.83355,-11.4309 l 13.54014,-7.80521 0.0101,-40.28281 c 0.006,-22.15554 0.0705,-40.28281 0.14426,-40.28281 0.11187,0 13.78399,5.87701 19.70956,8.47224 l 1.7198,0.75321 0.0641,43.21071 0.0641,43.21071 -2.5776,1.47222 c -1.41768,0.80973 -8.114,4.66678 -14.88072,8.57124 -13.2582,7.6501 -32.45785,18.71414 -43.52396,25.08123 -3.78354,2.17693 -7.23635,4.16807 -7.67292,4.42476 -0.79331,0.46645 -0.79754,0.46546 -7.73906,-1.79586 z"
         id="path2412" />
      <path
         style="fill:#A52A2A;stroke-width:0.264583"
         d="m 105.05161,287.08465 -10.776272,-4.67945 0.06065,-61.89738 0.06065,-61.89739 13.956772,-8.04324 13.95677,-8.04325 v -5.6861 c 0,-3.22966 -0.10216,-5.64801 -0.23648,-5.59792 -0.13007,0.0485 -9.11715,5.20789 -19.9713,11.46528 l -19.734821,11.37708 -0.0047,59.09654 c -0.0045,56.17059 -0.02767,59.088 -0.467763,58.92408 -0.254661,-0.0948 -5.196004,-2.22057 -10.980762,-4.72383 l -10.517742,-4.55139 0.0667,-61.86242 0.0667,-61.86243 34.908493,-20.12146 34.908495,-20.121466 6.96006,2.343486 6.96006,2.34348 0.002,31.68385 c 0.001,17.42612 -0.09,31.68386 -0.20211,31.68386 -0.11213,0 -2.48864,-0.65485 -5.28112,-1.45521 -2.79248,-0.80037 -5.26789,-1.45521 -5.50089,-1.45521 -0.23301,0 -4.16682,2.16048 -8.7418,4.80108 l -8.31825,4.80107 v 59.0958 c 0,32.50269 -0.0893,59.08819 -0.19844,59.0789 -0.10914,-0.009 -5.04776,-2.12266 -10.97471,-4.69636 z"
         id="path2408" />
    </g>
  </g>
</svg>
